<svg width="54" height="59" viewBox="0 0 54 59" fill="none" xmlns="http://www.w3.org/2000/svg">
<path d="M1.71576 47.292C1.08582 47.9221 0.00806038 47.4765 0.00806099 46.5855L0.00807595 24.7156C0.00807595 16.8219 0.0359309 9.6292 0.0081424 4.9C-0.00214419 3.14937 -0.000878419 1.81926 0.00220635 0.989674C0.00424511 0.441393 0.449639 0 0.997923 0H24.504H46.586C47.4769 0 47.9215 1.0787 47.2916 1.70869C43.2945 5.70641 41.2911 7.71033 23.9597 25.0444C8.14131 40.8652 6.68735 42.3196 1.71576 47.292Z" fill="#F2BC3B"/>
<path d="M52.2842 11.708C52.9142 11.0779 53.9919 11.5235 53.9919 12.4145L53.9919 34.2844C53.9919 42.1781 53.9641 49.3708 53.9919 54.1C54.0021 55.8506 54.0009 57.1807 53.9978 58.0103C53.9958 58.5586 53.5504 59 53.0021 59H29.496H7.41396C6.52309 59 6.07854 57.9213 6.70843 57.2913C10.7055 53.2936 12.7089 51.2897 30.0403 33.9556C45.8587 18.1348 47.3126 16.6804 52.2842 11.708Z" fill="#F2BC3B"/>
</svg>
