<svg width="314" height="59" viewBox="0 0 314 59" fill="none" xmlns="http://www.w3.org/2000/svg">
<path d="M93.4943 52V47.0781L115.866 14.9901H93.3665V8.36364H125.668V13.2855L103.317 45.3736H125.795V52H93.4943Z" fill="#2C405E"/>
<path d="M187.319 30.1818C187.319 34.8835 186.438 38.9105 184.677 42.2628C182.93 45.6009 180.543 48.1577 177.518 49.9332C174.506 51.7088 171.09 52.5966 167.269 52.5966C163.448 52.5966 160.025 51.7088 156.999 49.9332C153.988 48.1435 151.602 45.5795 149.84 42.2415C148.093 38.8892 147.219 34.8693 147.219 30.1818C147.219 25.4801 148.093 21.4602 149.84 18.1222C151.602 14.7699 153.988 12.206 156.999 10.4304C160.025 8.65483 163.448 7.76704 167.269 7.76704C171.09 7.76704 174.506 8.65483 177.518 10.4304C180.543 12.206 182.93 14.7699 184.677 18.1222C186.438 21.4602 187.319 25.4801 187.319 30.1818ZM179.371 30.1818C179.371 26.8722 178.853 24.081 177.816 21.8082C176.793 19.5213 175.373 17.7955 173.555 16.6307C171.736 15.4517 169.641 14.8622 167.269 14.8622C164.897 14.8622 162.802 15.4517 160.984 16.6307C159.165 17.7955 157.738 19.5213 156.701 21.8082C155.678 24.081 155.167 26.8722 155.167 30.1818C155.167 33.4915 155.678 36.2898 156.701 38.5767C157.738 40.8494 159.165 42.5753 160.984 43.7543C162.802 44.919 164.897 45.5014 167.269 45.5014C169.641 45.5014 171.736 44.919 173.555 43.7543C175.373 42.5753 176.793 40.8494 177.816 38.5767C178.853 36.2898 179.371 33.4915 179.371 30.1818Z" fill="#2C405E"/>
<path d="M209.675 52V8.36364H217.58V45.3736H236.799V52H209.675Z" fill="#2C405E"/>
<path d="M267.725 52L255.41 8.36364H263.912L271.774 40.4304H272.179L280.573 8.36364H288.308L296.724 40.4517H297.108L304.97 8.36364H313.471L301.156 52H293.358L284.622 21.3821H284.281L275.524 52H267.725Z" fill="#2C405E"/>
<path d="M1.71576 47.292C1.08582 47.9221 0.00806038 47.4765 0.00806099 46.5855L0.00807595 24.7156C0.00807595 16.8219 0.0359309 9.6292 0.0081424 4.9C-0.00214419 3.14937 -0.000878419 1.81926 0.00220635 0.989674C0.00424511 0.441393 0.449639 0 0.997923 0H24.504H46.586C47.4769 0 47.9215 1.0787 47.2916 1.70869C43.2945 5.70641 41.2911 7.71033 23.9597 25.0444C8.14131 40.8652 6.68735 42.3196 1.71576 47.292Z" fill="#F2BC3B"/>
<path d="M52.2842 11.708C52.9142 11.0779 53.9919 11.5235 53.9919 12.4145L53.9919 34.2844C53.9919 42.1781 53.9641 49.3708 53.9919 54.1C54.0021 55.8506 54.0009 57.1807 53.9978 58.0103C53.9958 58.5586 53.5504 59 53.0021 59H29.496H7.41396C6.52309 59 6.07854 57.9213 6.70843 57.2913C10.7055 53.2936 12.7089 51.2897 30.0403 33.9556C45.8587 18.1348 47.3126 16.6804 52.2842 11.708Z" fill="#F2BC3B"/>
</svg>
