<svg width="23" height="19" viewBox="0 0 23 19" fill="none" xmlns="http://www.w3.org/2000/svg">
<path fill-rule="evenodd" clip-rule="evenodd" d="M0 1C0 0.447715 0.447715 0 1 0H21.9083C22.4605 0 22.9083 0.447715 22.9083 1C22.9083 1.55228 22.4605 2 21.9083 2H1C0.447715 2 0 1.55228 0 1ZM0 9.36289C0 8.81061 0.447715 8.36289 1 8.36289H21.9083C22.4605 8.36289 22.9083 8.81061 22.9083 9.36289C22.9083 9.91518 22.4605 10.3629 21.9083 10.3629H1C0.447715 10.3629 0 9.91518 0 9.36289ZM1 16.7266C0.447715 16.7266 0 17.1743 0 17.7266C0 18.2788 0.447715 18.7266 1 18.7266H21.9083C22.4605 18.7266 22.9083 18.2788 22.9083 17.7266C22.9083 17.1743 22.4605 16.7266 21.9083 16.7266H1Z" fill="#F3F3F3"/>
</svg>
