<svg width="20" height="20" viewBox="0 0 20 20" fill="none" xmlns="http://www.w3.org/2000/svg">
<g clip-path="url(#clip0_121_1901)">
<path d="M15.156 9.87565C15.8674 8.85713 16.2853 7.61926 16.2853 6.28544C16.2853 2.81963 13.4657 0 9.9999 0C6.53413 0 3.71446 2.81963 3.71446 6.28539C3.71446 7.61922 4.13243 8.85709 4.84378 9.87561L1.52393 17.8905L4.91409 16.9081L6.61665 20L9.69701 12.5634C9.79738 12.5682 9.89834 12.5709 9.9999 12.5709C10.1015 12.5709 10.2024 12.5682 10.3028 12.5634L13.3831 20L15.0857 16.9081L18.4759 17.8905L15.156 9.87565ZM6.45429 17.0679L5.53749 15.4031L3.712 15.932L5.77991 10.9397C6.51658 11.6082 7.41213 12.1045 8.40232 12.3649L6.45429 17.0679ZM4.98655 6.28539C4.98655 3.52106 7.23552 1.27209 9.9999 1.27209C12.7643 1.27209 15.0132 3.52106 15.0132 6.28539C15.0132 9.04977 12.7643 11.2987 9.9999 11.2987C7.23552 11.2987 4.98655 9.04981 4.98655 6.28539ZM14.4622 15.4031L13.5454 17.0679L11.5974 12.3649C12.5876 12.1045 13.4831 11.6082 14.2198 10.9397L16.2877 15.9321L14.4622 15.4031Z" fill="#121212"/>
<path d="M9.99984 2.96826C8.17071 2.96826 6.68262 4.45635 6.68262 6.28545C6.68262 8.11454 8.17071 9.60267 9.99984 9.60267C11.829 9.60267 13.3171 8.11454 13.3171 6.28545C13.3171 4.45635 11.8289 2.96826 9.99984 2.96826ZM9.99984 8.33063C8.87214 8.33063 7.95471 7.41315 7.95471 6.28549C7.95471 5.15782 8.87214 4.24035 9.99984 4.24035C11.1276 4.24035 12.045 5.15778 12.045 6.28545C12.045 7.41311 11.1275 8.33063 9.99984 8.33063Z" fill="#121212"/>
</g>
<defs>
<clipPath id="clip0_121_1901">
<rect width="20" height="20" fill="white"/>
</clipPath>
</defs>
</svg>
