<svg width="20" height="20" viewBox="0 0 20 20" fill="none" xmlns="http://www.w3.org/2000/svg">
<path d="M17.3456 4.95734L16.08 6.22297L12.916 3.055L14.1816 1.78937C14.4394 1.53156 14.8886 1.53156 15.1464 1.78937L17.3456 3.9925C17.6113 4.25812 17.6113 4.69172 17.3456 4.95734ZM6.77143 15.5433L3.60736 12.3753L11.7871 4.1839L14.9511 7.35187L6.77143 15.5433ZM2.8769 13.9027L5.24408 16.2737L1.94721 17.2034L2.8769 13.9027ZM18.4746 2.86359L16.2753 0.660468C15.8456 0.23078 14.2949 -0.58172 13.0566 0.660468L1.91205 11.8128C1.81439 11.9105 1.74408 12.0277 1.70893 12.1605L0.0292385 18.1409C-0.0488865 18.4183 0.0331448 18.7152 0.232364 18.9222C0.435489 19.1292 0.841739 19.1644 1.01361 19.1253L6.99018 17.4417C7.12299 17.4066 7.24018 17.3362 7.33783 17.2386L18.4746 6.08625C19.3613 5.19953 19.3613 3.75422 18.4746 2.86359Z" fill="#121212"/>
</svg>
