<svg width="28" height="17" viewBox="0 0 28 17" fill="none" xmlns="http://www.w3.org/2000/svg">
<path d="M25.4382 11.3593L25.4226 8.71817L28 7.29676L13.9616 0L0 7.4427L5.59756 10.6102L5.60872 12.4923L5.60986 12.6426L5.66101 12.6185C5.60201 12.6974 5.56419 12.7785 5.56533 12.8597C5.56977 13.7854 9.3612 14.518 14.0407 14.4928C18.718 14.4687 22.5038 13.6933 22.5005 12.7698C22.5005 12.6886 22.4571 12.6097 22.3993 12.5285L22.4504 12.5527V12.4024L22.4404 10.5126L24.8675 9.0243L24.8808 11.3626C24.6137 11.4756 24.4279 11.7344 24.4301 12.0372C24.4324 12.4342 24.7595 12.7555 25.1657 12.7523C25.5741 12.75 25.898 12.4254 25.8957 12.0294C25.8934 11.7267 25.7065 11.4701 25.4382 11.3593ZM14.0373 13.8555C9.88538 13.8786 6.51788 13.4289 6.51458 12.8553C6.51128 12.2817 9.87421 11.8002 14.0263 11.7793C18.1793 11.7563 21.5457 12.2038 21.548 12.7763C21.5511 13.3478 18.1904 13.8337 14.0373 13.8555ZM22.2489 8.97928C21.6869 8.39689 19.6727 6.85918 13.9995 6.89106C8.31843 6.9207 6.32983 8.47704 5.77457 9.06819L5.77126 8.51106C5.77126 8.51106 7.38262 6.09482 13.9952 6.0608C20.6043 6.02567 22.2457 8.42327 22.2457 8.42327L22.2489 8.97928ZM24.5748 12.9101L24.2888 17C25.1734 15.6301 25.9124 16.1401 25.9124 16.1401L25.8946 12.9035C24.9441 13.271 24.5748 12.9101 24.5748 12.9101Z" fill="#121212"/>
</svg>
