<svg width="20" height="15" viewBox="0 0 20 15" fill="none" xmlns="http://www.w3.org/2000/svg">
<path d="M7 9.38965C4.66 9.38965 0 10.5596 0 12.8896V14.6396H14V12.8896C14 10.5596 9.34 9.38965 7 9.38965ZM2.34 12.6396C3.18 12.0596 5.21 11.3896 7 11.3896C8.79 11.3896 10.82 12.0596 11.66 12.6396H2.34ZM7 7.63965C8.93 7.63965 10.5 6.06965 10.5 4.13965C10.5 2.20965 8.93 0.639648 7 0.639648C5.07 0.639648 3.5 2.20965 3.5 4.13965C3.5 6.06965 5.07 7.63965 7 7.63965ZM7 2.63965C7.83 2.63965 8.5 3.30965 8.5 4.13965C8.5 4.96965 7.83 5.63965 7 5.63965C6.17 5.63965 5.5 4.96965 5.5 4.13965C5.5 3.30965 6.17 2.63965 7 2.63965ZM14.04 9.44965C15.2 10.2896 16 11.4096 16 12.8896V14.6396H20V12.8896C20 10.8696 16.5 9.71965 14.04 9.44965V9.44965ZM13 7.63965C14.93 7.63965 16.5 6.06965 16.5 4.13965C16.5 2.20965 14.93 0.639648 13 0.639648C12.46 0.639648 11.96 0.769648 11.5 0.989648C12.13 1.87965 12.5 2.96965 12.5 4.13965C12.5 5.30965 12.13 6.39965 11.5 7.28965C11.96 7.50965 12.46 7.63965 13 7.63965Z" fill="black"/>
</svg>
